<?xml version="1.0" encoding="UTF-8" standalone="no"?>
<!-- Created with Inkscape (http://www.inkscape.org/) -->

<svg
   width="12cm"
   height="7cm"
   viewBox="0 0 120 70"
   version="1.1"
   id="svg1"
   inkscape:version="1.3.2 (091e20ef0f, 2023-11-25, custom)"
   sodipodi:docname="logoUVazul.svg"
   xmlns:inkscape="http://www.inkscape.org/namespaces/inkscape"
   xmlns:sodipodi="http://sodipodi.sourceforge.net/DTD/sodipodi-0.dtd"
   xmlns="http://www.w3.org/2000/svg"
   xmlns:svg="http://www.w3.org/2000/svg">
  <sodipodi:namedview
     id="namedview1"
     pagecolor="#ffffff"
     bordercolor="#999999"
     borderopacity="1"
     inkscape:showpageshadow="2"
     inkscape:pageopacity="0"
     inkscape:pagecheckerboard="true"
     inkscape:deskcolor="#d1d1d1"
     inkscape:document-units="mm"
     inkscape:zoom="0.72159091"
     inkscape:cx="396.34646"
     inkscape:cy="561.25984"
     inkscape:window-width="1920"
     inkscape:window-height="1008"
     inkscape:window-x="0"
     inkscape:window-y="0"
     inkscape:window-maximized="1"
     inkscape:current-layer="layer1" />
  <defs
     id="defs1">
    <clipPath
       clipPathUnits="userSpaceOnUse"
       id="clipPath34">
      <path
         d="M 0,1241.4 H 611.4 V 0 H 0 Z"
         transform="translate(-264.4,-830.30002)"
         id="path34" />
    </clipPath>
    <clipPath
       clipPathUnits="userSpaceOnUse"
       id="clipPath36">
      <path
         d="M 0,1241.4 H 611.4 V 0 H 0 Z"
         transform="translate(-126.3,-857.50002)"
         id="path36" />
    </clipPath>
    <clipPath
       clipPathUnits="userSpaceOnUse"
       id="clipPath38">
      <path
         d="M 0,1241.4 H 611.4 V 0 H 0 Z"
         transform="translate(-87.200005,-946.60002)"
         id="path38" />
    </clipPath>
    <clipPath
       clipPathUnits="userSpaceOnUse"
       id="clipPath40">
      <path
         d="M 0,1241.4 H 611.4 V 0 H 0 Z"
         transform="translate(-101.2,-940.50002)"
         id="path40" />
    </clipPath>
    <clipPath
       clipPathUnits="userSpaceOnUse"
       id="clipPath42">
      <path
         d="M 0,1241.4 H 611.4 V 0 H 0 Z"
         transform="translate(-117.50001,-893.50002)"
         id="path42" />
    </clipPath>
    <clipPath
       clipPathUnits="userSpaceOnUse"
       id="clipPath44">
      <path
         d="M 0,1241.4 H 611.4 V 0 H 0 Z"
         transform="translate(-151.10001,-873.80002)"
         id="path44" />
    </clipPath>
    <clipPath
       clipPathUnits="userSpaceOnUse"
       id="clipPath46">
      <path
         d="M 0,1241.4 H 611.4 V 0 H 0 Z"
         transform="translate(-146.2,-909.20003)"
         id="path46" />
    </clipPath>
  </defs>
  <g
     inkscape:label="Capa 1"
     inkscape:groupmode="layer"
     id="layer1">
    <g
       id="g508"
       transform="matrix(0.26458333,0,0,0.26458333,-11.913749,-88.772082)">
      <path
         id="path33"
         d="m 0,0 c 0,-1.6 -0.2,-2.7 -0.5,-3.3 -0.3,-0.6 -0.9,-0.9 -1.7,-0.9 -0.9,0 -1.5,0.4 -1.8,1.1 -0.3,0.7 -0.5,2.9 -0.5,6.5 0,3.3 0.2,5.3 0.5,6 0.3,0.7 0.9,1.1 1.8,1.1 0.7,0 1.2,-0.3 1.6,-0.8 0.4,-0.5 0.5,-1.3 0.5,-2.4 V 6.8 h 3.6 c 0,2.3 -0.5,4 -1.4,5 -0.9,1 -2.4,1.6 -4.4,1.6 -1.2,0 -2.2,-0.2 -3,-0.6 -0.8,-0.4 -1.5,-1.1 -2,-2 C -7.6,10.2 -7.9,9.3 -8.1,8.1 -8.3,6.9 -8.3,5.3 -8.3,3.2 c 0,-3 0.1,-5.1 0.4,-6.3 0.3,-1.2 0.7,-2.1 1.4,-2.8 0.5,-0.5 1.1,-0.9 1.7,-1.1 0.7,-0.2 1.5,-0.4 2.4,-0.4 2,0 3.5,0.5 4.4,1.7 1,1.1 1.4,2.8 1.4,5.1 v 0.4 0.4 h -3.6 z m 18.1,-6.8 v 9 h 5 v -9 h 3.7 V 13 H 23.1 V 5.2 h -5 V 13 H 14.4 V -6.8 Z M 41.7,13 H 38 V -6.8 h 3.7 z M 63.3,-6.8 v 3.4 H 56.6 V 13 H 52.9 V -6.8 Z m 20.6,0 v 3.3 h -6.6 v 5.4 h 6 v 3.2 h -6 v 4.6 h 6.5 V 13 H 73.6 V -6.8 Z"
         style="fill:#163a56;fill-opacity:1;fill-rule:nonzero;stroke:none"
         transform="matrix(1.3333333,0,0,-1.3333333,352.53333,548.13333)"
         clip-path="url(#clipPath34)" />
      <path
         id="path35"
         d="m 0,0 c 0.1,-6.6 -3.1,-6.4 -17.8,-10.5 l -11.8,-2.9 c -0.1,0 -7.2,1.6 -12.3,2.9 -16.3,3.9 -17.6,4.4 -17.6,12 V 64.9 H -0.1 V 0 Z M -66.9,72.1 V -3 c 0,-9.3 7.5,-10.3 12.7,-11.6 l 24.7,-6.2 24,6 c 8.9,1.9 12.9,4.2 12.9,11.9 v 75 z"
         style="fill:#163a56;fill-opacity:1;fill-rule:nonzero;stroke:none"
         transform="matrix(1.3333333,0,0,-1.3333333,168.4,511.86667)"
         clip-path="url(#clipPath36)" />
      <path
         id="path37"
         d="M 0,0 0.1,1.1 -27.7,1.7 V -1.1 Z M 19.1,0 19,1.1 46.4,1.7 V -1 Z m -18.7,2.5 -0.2,-1 -23.6,3 3.8,1.8 z m 18.3,0 0.2,-1 23.6,3.1 -3.8,1.8 z M 1,3.9 0.6,2.9 -15.2,7.8 -11.7,9 Z m 17.1,0 0.4,-1 15.8,4.9 -3.5,1.2 z m -16,1.8 -0.7,-1 -9.9,5 4.2,0.8 z M 17,5.6 l 0.7,-1 10,5 -4.2,0.8 z M 3.3,6.8 2.7,6.3 l -5.4,4.5 2.2,0.4 z M 16,6.7 l 0.6,-0.5 5.5,4.5 -2.2,0.4 z M 4.6,7.8 3.7,7.2 l -2.9,4 1.6,0.1 z m 9.9,-0.1 0.9,-0.6 3,4 -1.6,0.1 z M 6.5,8.6 5.3,8.1 3.5,11.3 5,11.4 Z m 6.2,0 1.2,-0.5 1.8,3.3 -1.5,0.1 z M 8.4,9 7.2,8.8 6.4,11.6 H 8 Z m 2.3,0 1.2,-0.2 0.9,2.8 H 11.2 Z M 0.1,-1.7 0,-0.4 l -25,-3.2 3.9,-2.2 z m 18.8,0 0.2,1.3 25.1,-3.2 -3.9,-2.2 z M 0.7,-3.4 0.3,-2.3 -17,-7.5 l 4.5,-1.4 z m 17.7,0 0.4,1.1 17.3,-5.2 -4.5,-1.4 z m -16.7,-1.9 -0.6,1 -10.2,-5.4 3.5,-0.7 z m 15.7,0 0.6,1 10.2,-5.4 -3.5,-0.7 z m -14.2,-1.5 -0.9,0.9 -5.6,-4.9 2.6,-0.4 z m 12.8,0.1 0.9,0.9 5.7,-4.9 -2.6,-0.4 z M 4.7,-7.9 3.6,-7.2 0.4,-11.4 2.2,-11.6 Z m 9.8,0.1 1.1,0.7 3.2,-4.2 -1.9,-0.1 z m -8.1,-0.9 -1,0.4 -2,-3.4 1.8,-0.1 z m 6.5,0.1 1,0.4 1.9,-3.4 -1.7,-0.2 z M 8.3,-9.1 6.9,-8.9 6.3,-11.8 h 1.8 z m 2.6,0 1.4,0.3 0.6,-3 H 11.2 Z M 8.8,11.6 h 1.4 V 9 H 8.8 Z M 8.9,-9.2 h 1.2 v -2.6 H 8.9 Z"
         style="fill:#163a56;fill-opacity:1;fill-rule:nonzero;stroke:none"
         transform="matrix(1.3333333,0,0,-1.3333333,116.26667,393.06667)"
         clip-path="url(#clipPath38)" />
      <path
         id="path39"
         d="M 0,0 -4.5,3.2 -9,0 l 1.7,5.3 -4.4,3.2 5.5,0.1 1.7,5.2 1.8,-5.2 5.5,-0.1 -4.5,-3.2 z"
         style="fill:#163a56;fill-opacity:1;fill-rule:nonzero;stroke:none"
         transform="matrix(1.3333333,0,0,-1.3333333,134.93333,401.2)"
         clip-path="url(#clipPath40)" />
      <path
         id="path41"
         d="m 0,0 4.2,3.2 -5.3,0.1 -1.8,5 -1.8,-5 -5.3,-0.1 4.2,-3.2 -1.5,-5.1 4.4,3 4.4,-3 z m -7.7,-14.6 3.1,2.4 -3.9,0.1 -1.3,3.7 -1.3,-3.7 -3.9,-0.1 3.1,-2.4 -1.1,-3.8 3.2,2.2 3.2,-2.2 z m -28.4,10.3 4.2,3.2 -5.3,0.1 -1.8,5 -1.8,-5 -5.3,-0.1 4.2,-3.2 -1.5,-5.1 4.4,3 4.4,-3 z m 18.2,-34.4 4.2,3.2 -5.3,0.1 -1.8,5 -1.8,-5 -5.3,-0.1 4.2,-3.2 -1.5,-5.1 4.4,3 4.4,-3 z m 1.6,49.6 -4.4,3 -4.4,-3 1.5,5.1 -4.2,3.2 5.3,0.1 1.8,5 1.8,-5 5.3,-0.1 -4.2,-3.2 z"
         style="fill:#163a56;fill-opacity:1;fill-rule:nonzero;stroke:none"
         transform="matrix(1.3333333,0,0,-1.3333333,156.66667,463.86667)"
         clip-path="url(#clipPath42)" />
      <path
         id="path43"
         d="m 0,0 c 0.3,0.8 1,1.3 1.9,1.3 1,0 1.7,-0.5 2.1,-1.5 0.4,-1 0.6,-3.4 0.6,-7.4 0,-2.5 -0.2,-4.1 -0.6,-4.9 -0.4,-0.8 -1.1,-1.2 -2.1,-1.2 -0.9,0 -1.5,0.4 -1.9,1.3 -0.3,0.9 -0.5,3 -0.5,6.5 0,3.1 0.2,5 0.5,5.9 M 4.7,-17.3 H 9.6 V 12.3 H 4.4 V 3.1 C 4,3.9 3.4,4.6 2.7,5 2,5.4 1.1,5.6 0.1,5.6 -2,5.6 -3.5,4.7 -4.4,3.1 -5.3,1.4 -5.7,-1.7 -5.7,-6.2 c 0,-4.3 0.4,-7.4 1.3,-9.1 0.9,-1.7 2.4,-2.6 4.5,-2.6 1.1,0 2,0.2 2.8,0.7 0.8,0.5 1.4,1.2 1.8,2.2 z m 13.9,14.9 c 0,1.5 0.2,2.5 0.6,3.1 0.4,0.6 1,0.9 1.9,0.9 0.9,0 1.6,-0.3 2,-0.9 0.4,-0.6 0.6,-1.6 0.6,-3.1 v -0.9 h -5 c 0,0.1 -0.1,0.4 -0.1,0.9 M 23.2,-13 c -0.4,-0.7 -1.1,-1 -2,-1 -0.9,0 -1.6,0.4 -2,1.3 -0.4,0.9 -0.6,2.3 -0.6,4.4 v 0.9 c 0,0.2 0,0.4 0.1,0.5 h 10.1 v 1.7 c 0,2.5 -0.1,4.3 -0.4,5.4 -0.2,1.1 -0.6,2 -1.2,2.8 -0.6,0.9 -1.5,1.5 -2.5,1.9 -1,0.4 -2.2,0.6 -3.6,0.6 -1.4,0 -2.6,-0.2 -3.7,-0.6 -1,-0.4 -1.9,-1 -2.5,-1.7 -0.6,-0.7 -1.1,-1.7 -1.3,-2.9 -0.3,-1.2 -0.4,-3.1 -0.4,-5.8 0,-3.4 0.1,-5.8 0.4,-7.1 0.3,-1.3 0.8,-2.4 1.5,-3.2 0.6,-0.7 1.4,-1.3 2.3,-1.6 0.9,-0.3 2.1,-0.5 3.5,-0.5 2.6,0 4.6,0.6 5.8,1.8 1.2,1.2 1.8,3 1.8,5.6 v 0.4 0.4 h -4.9 c 0.2,-1.5 0,-2.6 -0.4,-3.3 m 24.7,-4.3 6.2,29.6 h -5.8 l -4,-23.6 -4.4,23.6 H 34 l 6.6,-29.6 z m 17.4,8.1 c 0,-1.6 -0.2,-2.7 -0.7,-3.5 -0.5,-0.8 -1.1,-1.2 -2,-1.2 -0.8,0 -1.4,0.2 -1.7,0.7 -0.3,0.5 -0.6,1.2 -0.6,2.2 0,1 0.3,2 1,2.7 0.7,0.8 2,1.6 3.9,2.6 z m 5.7,-8.1 c -0.3,0.5 -0.5,1 -0.6,1.5 -0.1,0.5 -0.2,1.1 -0.2,1.7 V -1.5 C 70.2,1.1 69.6,3 68.6,4 67.5,5 65.6,5.6 62.9,5.6 60.2,5.6 58.2,5 57,3.9 55.8,2.8 55.2,0.9 55.2,-1.6 h 5 v 0.4 c 0,1.1 0.2,1.9 0.7,2.4 C 61.3,1.7 62,2 63,2 c 0.7,0 1.3,-0.2 1.7,-0.6 0.4,-0.4 0.6,-0.9 0.6,-1.6 0,-1.1 -1,-2.2 -3,-3 -0.4,-0.2 -0.8,-0.3 -1,-0.5 -2.4,-1.1 -4.1,-2.2 -4.9,-3.3 -0.8,-1.1 -1.2,-2.5 -1.2,-4.4 0,-2 0.5,-3.6 1.4,-4.8 0.9,-1.2 2.3,-1.7 3.9,-1.7 1.1,0 2.1,0.2 3,0.7 0.9,0.5 1.6,1.1 2.1,2 0.1,-0.6 0.2,-1.1 0.3,-1.4 0.1,-0.3 0.2,-0.6 0.3,-0.8 z m 8.7,29.6 h -5.1 v -29.6 h 5.1 z m 10,-12.2 c 0.4,0.8 1.1,1.2 2.1,1.2 0.9,0 1.5,-0.4 1.9,-1.3 0.3,-0.9 0.5,-2.9 0.5,-6.1 0,-3.3 -0.2,-5.4 -0.5,-6.2 -0.3,-0.8 -1,-1.2 -1.9,-1.2 -1,0 -1.7,0.5 -2.1,1.5 -0.4,1 -0.6,3.2 -0.6,6.9 0.1,2.6 0.2,4.4 0.6,5.2 m -0.4,-24.9 v 9.4 c 0.4,-0.8 1,-1.5 1.7,-1.9 0.7,-0.4 1.6,-0.6 2.6,-0.6 2.1,0 3.6,0.9 4.5,2.5 0.9,1.7 1.3,4.8 1.3,9.3 0,4.3 -0.4,7.4 -1.3,9.1 -0.9,1.7 -2.4,2.6 -4.6,2.6 -1.1,0 -2,-0.2 -2.8,-0.7 C 89.9,4.4 89.3,3.7 88.9,2.7 V 5 H 84 v -29.7 z m 23.8,15.6 c 0,-1.6 -0.2,-2.7 -0.7,-3.5 -0.5,-0.8 -1.1,-1.2 -2,-1.2 -0.8,0 -1.4,0.2 -1.7,0.7 -0.4,0.5 -0.5,1.2 -0.5,2.2 0,1 0.3,2 1,2.7 0.7,0.8 2,1.6 3.9,2.6 z m 5.7,-8.1 c -0.3,0.5 -0.5,1 -0.6,1.5 -0.1,0.5 -0.2,1.1 -0.2,1.7 v 12.6 c 0,2.6 -0.5,4.5 -1.6,5.5 -1.1,1 -3,1.6 -5.7,1.6 C 108,5.6 106,5 104.8,3.9 103.6,2.8 103,0.9 103,-1.6 h 5 v 0.4 c 0,1.1 0.2,1.9 0.7,2.4 0.5,0.5 1.1,0.8 2.1,0.8 0.8,0 1.3,-0.2 1.7,-0.6 0.4,-0.4 0.6,-0.9 0.6,-1.6 0,-1.1 -1,-2.2 -3,-3 -0.5,-0.2 -0.8,-0.3 -1,-0.5 -2.5,-1.1 -4.1,-2.2 -4.9,-3.3 -0.8,-1.1 -1.2,-2.5 -1.2,-4.4 0,-2 0.5,-3.6 1.4,-4.8 0.9,-1.2 2.3,-1.7 4,-1.7 1.1,0 2.1,0.2 3,0.7 0.9,0.5 1.5,1.1 2.1,2 0.1,-0.6 0.2,-1.1 0.3,-1.4 0.1,-0.3 0.2,-0.6 0.3,-0.8 z m 8.9,0 v 13 c 0,1.1 0.3,2 1,2.6 0.6,0.6 1.5,1 2.6,1 h 0.7 c 0.2,0 0.4,0 0.6,-0.1 v 6.2 c -1.2,0 -2.1,-0.3 -2.9,-1 -0.8,-0.6 -1.5,-1.7 -2.3,-3.2 v 3.6 h -4.9 v -22.2 z m 17.8,8.1 c 0,-1.6 -0.2,-2.7 -0.7,-3.5 -0.5,-0.8 -1.1,-1.2 -2,-1.2 -0.8,0 -1.4,0.2 -1.7,0.7 -0.4,0.5 -0.5,1.2 -0.5,2.2 0,1 0.3,2 1,2.7 0.7,0.8 2,1.6 3.9,2.6 z m 5.7,-8.1 c -0.3,0.5 -0.5,1 -0.6,1.5 -0.1,0.5 -0.2,1.1 -0.2,1.7 v 12.6 c 0,2.6 -0.5,4.5 -1.6,5.5 -1.1,1 -3,1.6 -5.7,1.6 -2.7,0 -4.7,-0.6 -5.9,-1.7 -1.2,-1.1 -1.8,-3 -1.8,-5.5 h 5 v 0.4 c 0,1.1 0.2,1.9 0.7,2.4 0.4,0.5 1.1,0.8 2.1,0.8 0.7,0 1.3,-0.2 1.7,-0.6 0.4,-0.4 0.6,-0.9 0.6,-1.6 0,-1.1 -1,-2.2 -3,-3 -0.5,-0.2 -0.8,-0.3 -1,-0.5 -2.5,-1.1 -4.1,-2.2 -4.9,-3.3 -0.8,-1.1 -1.2,-2.5 -1.2,-4.4 0,-2 0.5,-3.6 1.4,-4.8 0.9,-1.2 2.3,-1.7 4,-1.7 1.1,0 2.1,0.2 3,0.7 0.9,0.5 1.5,1.1 2.1,2 0.1,-0.6 0.2,-1.1 0.3,-1.4 0.1,-0.3 0.2,-0.6 0.3,-0.8 z m 8.7,22.2 h -5.1 v -22.2 h 5.1 z m -2.9,2.4 5.9,5.5 H 158 l -3.4,-5.5 z m 6.5,-17.7 v -0.4 c 0,-2.5 0.6,-4.2 1.7,-5.4 1.2,-1.1 3,-1.7 5.4,-1.7 2.3,0 4.1,0.5 5.4,1.6 1.3,1.1 1.9,2.6 1.9,4.6 0,2.5 -1.9,4.9 -5.6,7.4 -0.5,0.4 -0.9,0.6 -1.2,0.8 -1.2,0.8 -1.9,1.4 -2.3,1.9 -0.3,0.4 -0.5,0.9 -0.5,1.5 0,0.6 0.2,1 0.6,1.4 0.4,0.4 0.9,0.5 1.5,0.5 0.9,0 1.5,-0.2 1.9,-0.8 0.4,-0.6 0.6,-1.3 0.6,-2.4 v -0.5 h 4.5 v 0.5 c 0,2.3 -0.6,4.1 -1.7,5.2 -1.1,1.1 -2.8,1.7 -5.1,1.7 -2.3,0 -4.1,-0.5 -5.3,-1.6 -1.2,-1 -1.8,-2.5 -1.8,-4.5 0,-2.5 1.9,-5 5.6,-7.6 0.1,-0.1 0.2,-0.1 0.2,-0.2 0.2,-0.1 0.6,-0.4 1,-0.6 1.7,-1.1 2.5,-2.1 2.5,-2.9 0,-0.7 -0.2,-1.2 -0.6,-1.6 -0.4,-0.4 -1,-0.6 -1.7,-0.6 -0.9,0 -1.6,0.3 -2,0.8 -0.4,0.5 -0.6,1.5 -0.6,2.7 v 0.6 h -4.6 c 0.2,0 0.2,-0.2 0.2,-0.4 m 22.8,6 c 0,2.6 0.2,4.3 0.5,5 0.4,0.7 1,1 2,1 1,0 1.7,-0.4 2,-1.1 0.4,-0.8 0.5,-2.6 0.5,-5.5 v -1.3 -0.9 c 0,-3 -0.2,-4.9 -0.5,-5.6 -0.4,-0.7 -1,-1.1 -2.1,-1.1 -1,0 -1.6,0.4 -2,1.1 -0.3,0.8 -0.5,2.9 -0.5,6.3 v 0.5 1.6 z m -3.6,-11 c 1.1,-1.7 3.2,-2.5 6.1,-2.5 2.9,0 5,0.8 6.1,2.5 1.1,1.7 1.7,4.7 1.7,9.2 0,4.5 -0.6,7.6 -1.7,9.2 -1.1,1.7 -3.2,2.5 -6.1,2.5 -2.9,0 -4.9,-0.8 -6.1,-2.5 -1.1,-1.7 -1.7,-4.7 -1.7,-9.2 0,-4.5 0.6,-7.6 1.7,-9.2"
         style="fill:#163a56;fill-opacity:1;fill-rule:nonzero;stroke:none"
         transform="matrix(1.3333333,0,0,-1.3333333,201.46667,490.13333)"
         clip-path="url(#clipPath44)" />
      <path
         id="path45"
         d="m 0,0 c 0,-3.6 0.7,-6.2 2.1,-7.7 1.4,-1.5 3.8,-2.2 7.2,-2.2 1.8,0 3.4,0.3 4.6,0.8 1.3,0.5 2.4,1.3 3.2,2.3 0.5,0.7 0.9,1.5 1.1,2.4 0.2,0.9 0.3,2.4 0.3,4.4 V 20.5 H 13.1 V 0.6 c 0,-2.3 -0.3,-3.9 -0.8,-4.7 -0.5,-0.8 -1.5,-1.2 -2.9,-1.2 -1.4,0 -2.4,0.4 -3,1.2 -0.6,0.8 -0.8,2.4 -0.8,4.6 v 20 H 0.1 Z M 30.4,-9.2 V 5 c 0,1.6 0.2,2.7 0.6,3.3 0.4,0.6 1,1 1.9,1 0.8,0 1.3,-0.3 1.7,-0.8 C 35,8 35.1,7 35.1,5.7 V -9.2 h 5 V 8.3 c 0,1.7 -0.4,3.1 -1.3,4 -0.9,0.9 -2.1,1.4 -3.7,1.4 -1,0 -1.9,-0.2 -2.7,-0.7 -0.8,-0.5 -1.4,-1.2 -2,-2.1 v 2.2 h -5 V -9.1 Z m 21,29.7 h -5.1 v -4.6 h 5.1 z m 0,-7.4 H 46.3 V -9.1 h 5.1 z M 67.5,-9.2 72.6,13 h -5.3 l -2.8,-17 -3,17 H 56 L 61.1,-9.2 Z M 81.9,5.7 c 0,1.5 0.2,2.5 0.6,3.1 0.4,0.6 1,0.9 1.9,0.9 0.9,0 1.6,-0.3 2,-0.9 C 86.8,8.2 87,7.2 87,5.7 V 4.8 H 82 C 81.9,5 81.9,5.3 81.9,5.7 m 4.6,-10.6 c -0.4,-0.7 -1.1,-1 -2,-1 -0.9,0 -1.6,0.4 -2,1.3 -0.4,0.9 -0.6,2.3 -0.6,4.4 v 0.9 c 0,0.2 0,0.4 0.1,0.5 h 10.1 v 1.7 c 0,2.5 -0.1,4.3 -0.4,5.4 -0.3,1.1 -0.6,2 -1.2,2.8 C 89.9,12 89,12.6 88,13 87,13.4 85.8,13.6 84.4,13.6 83,13.6 81.8,13.4 80.7,13 79.7,12.6 78.8,12 78.2,11.3 77.6,10.6 77.1,9.6 76.9,8.4 76.6,7.2 76.5,5.3 76.5,2.6 c 0,-3.4 0.1,-5.8 0.4,-7.1 0.3,-1.3 0.8,-2.4 1.5,-3.2 0.6,-0.7 1.4,-1.3 2.3,-1.6 0.9,-0.4 2.1,-0.5 3.5,-0.5 2.6,0 4.6,0.6 5.8,1.8 1.2,1.2 1.8,3 1.8,5.6 v 0.4 0.4 h -4.9 c 0.2,-1.5 0,-2.6 -0.4,-3.3 m 16.8,-4.3 v 13 c 0,1.1 0.3,2 1,2.6 0.7,0.6 1.5,1 2.6,1 h 0.7 c 0.2,0 0.4,0 0.6,-0.1 v 6.2 c -1.1,0 -2.1,-0.3 -2.9,-1 -0.8,-0.6 -1.6,-1.7 -2.3,-3.2 v 3.6 H 98.1 V -9.3 Z m 9.2,7 v -0.4 c 0,-2.5 0.6,-4.2 1.7,-5.4 1.1,-1.2 3,-1.7 5.4,-1.7 2.3,0 4.1,0.5 5.4,1.6 1.3,1.1 1.9,2.6 1.9,4.6 0,2.5 -1.9,4.9 -5.6,7.4 -0.5,0.4 -0.9,0.6 -1.2,0.8 -1.2,0.8 -1.9,1.4 -2.3,1.9 -0.3,0.4 -0.5,0.9 -0.5,1.5 0,0.6 0.2,1 0.6,1.4 0.4,0.4 0.9,0.5 1.5,0.5 0.9,0 1.5,-0.2 1.9,-0.8 0.4,-0.6 0.6,-1.3 0.6,-2.4 V 6.3 h 4.5 v 0.5 c 0,2.3 -0.6,4.1 -1.7,5.2 -1.1,1.1 -2.8,1.7 -5.1,1.7 -2.3,0 -4.1,-0.5 -5.3,-1.6 -1.2,-1 -1.8,-2.5 -1.8,-4.5 0,-2.5 1.9,-5 5.6,-7.6 0.1,-0.1 0.2,-0.1 0.2,-0.2 0.2,-0.1 0.6,-0.4 1,-0.6 1.7,-1.1 2.5,-2.1 2.5,-2.9 0,-0.7 -0.2,-1.2 -0.6,-1.6 -0.4,-0.4 -1,-0.6 -1.7,-0.6 -0.9,0 -1.6,0.3 -2,0.8 -0.4,0.5 -0.6,1.5 -0.6,2.7 v 0.6 h -4.6 c 0.2,-0.1 0.2,-0.2 0.2,-0.4 m 25.2,22.7 h -5.1 v -4.6 h 5.1 z m 0,-7.4 h -5.1 V -9.1 h 5.1 z m 11.5,-5 c 0.3,0.8 1,1.3 1.9,1.3 1,0 1.7,-0.5 2.1,-1.5 0.4,-1 0.6,-3.4 0.6,-7.4 0,-2.5 -0.2,-4.1 -0.6,-4.9 -0.4,-0.8 -1.1,-1.2 -2.1,-1.2 -0.9,0 -1.5,0.4 -1.9,1.3 -0.3,0.9 -0.5,3 -0.5,6.5 0,3.1 0.2,5.1 0.5,5.9 m 4.7,-17.3 h 4.9 v 29.6 h -5.2 v -9.2 c -0.4,0.8 -1,1.5 -1.7,1.9 -0.7,0.4 -1.6,0.6 -2.6,0.6 -2.1,0 -3.6,-0.9 -4.5,-2.5 -0.9,-1.7 -1.3,-4.8 -1.3,-9.3 0,-4.3 0.4,-7.4 1.3,-9.1 0.9,-1.7 2.4,-2.5 4.5,-2.5 1.1,0 2,0.2 2.8,0.7 0.8,0.5 1.4,1.2 1.8,2.2 z M 175,-1 c 0,-1.6 -0.2,-2.7 -0.7,-3.5 -0.5,-0.8 -1.1,-1.2 -2,-1.2 -0.8,0 -1.4,0.2 -1.7,0.7 -0.4,0.5 -0.5,1.2 -0.5,2.2 0,1 0.3,2 1,2.7 0.7,0.8 2,1.6 3.9,2.6 z m 5.7,-8.2 c -0.3,0.5 -0.5,1 -0.6,1.5 -0.1,0.5 -0.2,1.1 -0.2,1.7 V 6.6 c 0,2.6 -0.5,4.5 -1.6,5.5 -1.1,1 -3,1.6 -5.7,1.6 -2.7,0 -4.7,-0.6 -5.9,-1.7 -1.2,-1.1 -1.8,-3 -1.8,-5.5 h 5 v 0.4 c 0,1.1 0.2,1.9 0.7,2.4 0.5,0.5 1.1,0.8 2.1,0.8 0.7,0 1.3,-0.2 1.7,-0.6 0.4,-0.4 0.6,-0.9 0.6,-1.6 0,-1.1 -1,-2.2 -3,-3 -0.5,-0.2 -0.8,-0.4 -1,-0.5 -2.5,-1.1 -4.1,-2.2 -4.9,-3.3 -0.8,-1.1 -1.2,-2.5 -1.2,-4.4 0,-2 0.5,-3.6 1.4,-4.8 0.9,-1.2 2.3,-1.7 4,-1.7 1.1,0 2.1,0.2 3,0.7 0.9,0.5 1.5,1.1 2.1,2 0.1,-0.6 0.2,-1.1 0.3,-1.4 0.1,-0.3 0.2,-0.6 0.3,-0.8 z m 10.7,17.3 c 0.3,0.8 1,1.3 1.9,1.3 1,0 1.7,-0.5 2.1,-1.5 0.4,-1 0.6,-3.4 0.6,-7.4 0,-2.5 -0.2,-4.1 -0.6,-4.9 -0.4,-0.8 -1.1,-1.2 -2.1,-1.2 -0.9,0 -1.5,0.4 -1.9,1.3 -0.3,0.9 -0.5,3 -0.5,6.5 0,3.1 0.1,5.1 0.5,5.9 M 196,-9.2 h 4.9 v 29.6 h -5.1 v -9.2 c -0.4,0.8 -1,1.5 -1.7,1.9 -0.7,0.4 -1.6,0.6 -2.6,0.6 -2.1,0 -3.6,-0.9 -4.5,-2.5 -0.9,-1.7 -1.3,-4.8 -1.3,-9.3 0,-4.3 0.4,-7.4 1.3,-9.1 0.9,-1.7 2.4,-2.5 4.5,-2.5 1.1,0 2,0.2 2.8,0.7 0.8,0.5 1.4,1.2 1.8,2.2 z"
         style="fill:#163a56;fill-opacity:1;fill-rule:nonzero;stroke:none"
         transform="matrix(1.3333333,0,0,-1.3333333,194.93333,442.93333)"
         clip-path="url(#clipPath46)" />
    </g>
  </g>
</svg>
